<svg
              width="24"
              height="24"
              viewBox="0 0 24 24"
              fill="none"
              xmlns="http://www.w3.org/2000/svg"
            >
              <g clip-path="url(#clip0_1_1435)">
                <path
                  d="M18.22 21C18.09 21 17.96 20.99 17.84 20.97C10.18 19.91 4.09 13.82 3.03 6.16C2.92 5.36 3.16 4.56 3.69 3.95C4.21 3.35 4.97 3 5.77 3H9.07C9.93 3 10.65 3.61 10.8 4.45L11.19 6.64C11.38 7.69 10.93 8.76 10.07 9.38L9.74 9.61C10.95 11.45 12.54 13.03 14.4 14.24L14.61 13.95C15.22 13.08 16.3 12.64 17.35 12.82L19.54 13.21C20.38 13.36 20.99 14.09 20.99 14.94V18.24C20.99 19.04 20.64 19.8 20.04 20.33C19.54 20.76 18.89 21 18.22 21ZM5.77 4.5C5.4 4.5 5.06 4.65 4.81 4.94C4.57 5.22 4.46 5.59 4.51 5.96C5.48 12.95 11.05 18.52 18.04 19.49C18.41 19.54 18.78 19.43 19.06 19.19C19.34 18.94 19.5 18.61 19.5 18.23V14.93C19.5 14.8 19.41 14.7 19.29 14.68L17.1 14.29C16.61 14.21 16.13 14.41 15.85 14.81L15.23 15.68C15 16 14.57 16.09 14.23 15.89C11.7 14.4 9.57 12.29 8.09 9.79C7.89 9.45 7.98 9.02 8.3 8.8L9.19 8.17C9.59 7.89 9.79 7.4 9.71 6.92L9.32 4.71C9.3 4.59 9.19 4.5 9.07 4.5H5.77Z"
                  fill="#121331"
                />
              </g>
              <defs>
                <clipPath id="clip0_1_1435">
                  <rect width="24" height="24" fill="white" />
                </clipPath>
              </defs>
            </svg>