<svg
            width="24"
            height="24"
            viewBox="0 0 24 24"
            fill="none"
            xmlns="http://www.w3.org/2000/svg"
          >
            <g clip-path="url(#clip0_1_1419)">
              <path
                d="M18.9 4.76001C16.96 2.92001 14.43 1.94001 11.76 2.00001C9.09 2.07001 6.6 3.17001 4.76 5.10001C2.92 7.04001 1.94 9.57001 2 12.24C2.07 14.91 3.17 17.4 5.1 19.24C5.18 19.32 5.26 19.39 5.35 19.46C7.19 21.11 9.52 22 11.99 22H12.24C14.63 21.94 16.88 21.05 18.65 19.46C18.85 19.29 19.05 19.1 19.24 18.9C21.03 17.02 22 14.58 22 11.99V11.76C21.93 9.09001 20.83 6.60001 18.9 4.76001ZM12.21 20.5C10.19 20.54 8.26 19.89 6.71 18.64C7.16 17.38 8.39 16.51 9.75 16.51H14.25C15.61 16.51 16.84 17.38 17.29 18.64C15.85 19.81 14.09 20.45 12.21 20.5ZM18.44 17.53C17.63 16.02 16.03 15.01 14.25 15.01H9.75C7.97 15.01 6.36 16.02 5.56 17.54C4.27 16.06 3.55 14.2 3.5 12.21C3.45 9.94001 4.28 7.78001 5.85 6.14001C7.41 4.49001 9.52 3.56001 11.79 3.50001H12.01C14.2 3.50001 16.27 4.33001 17.86 5.85001C18.68 6.63001 19.33 7.55001 19.78 8.55001C20.22 9.56001 20.47 10.66 20.5 11.79C20.55 13.91 19.83 15.94 18.44 17.53Z"
                fill="#121331"
              />
              <path
                d="M14.75 13.5H11.75C9.96 13.5 8.5 12.04 8.5 10.25V8.25C8.5 6.46 9.96 5 11.75 5H12.25C14.04 5 15.5 6.46 15.5 8.25V12.75C15.5 13.16 15.16 13.5 14.75 13.5ZM11.75 6.5C10.79 6.5 10 7.29 10 8.25V10.25C10 11.21 10.79 12 11.75 12H14V8.25C14 7.29 13.21 6.5 12.25 6.5H11.75Z"
                fill="#121331"
              />
            </g>
            <defs>
              <clipPath id="clip0_1_1419">
                <rect width="24" height="24" fill="white" />
              </clipPath>
            </defs>
          </svg>