<svg
              width="24"
              height="24"
              viewBox="0 0 24 24"
              fill="none"
              xmlns="http://www.w3.org/2000/svg"
            >
              <g clip-path="url(#clip0_1_1403)">
                <path
                  d="M21.76 4.2C21.73 4.17 21.7 4.15 21.67 4.13C21.63 4.1 21.58 4.08 21.54 4.06C21.54 4.06 21.53 4.05 21.52 4.05C21.44 4.02 21.35 4 21.26 4H2.74C2.65 4 2.56 4.02 2.48 4.05C2.47 4.05 2.46 4.06 2.46 4.06C2.42 4.08 2.37 4.1 2.33 4.13C2.3 4.15 2.27 4.17 2.24 4.2C2.08 4.35 2 4.55 2 4.75V19.25C2 19.66 2.34 20 2.75 20H21.25C21.66 20 22 19.66 22 19.25V4.75C22 4.55 21.92 4.35 21.76 4.2ZM19.52 5.5L13.63 11.79C12.77 12.71 11.23 12.71 10.37 11.79L4.48 5.5H19.52ZM20.5 18.5H3.5V6.65L9.28 12.82C9.99 13.58 10.96 14 12 14C13.04 14 14.01 13.58 14.72 12.82L20.5 6.65V18.5Z"
                  fill="#121331"
                />
              </g>
              <defs>
                <clipPath id="clip0_1_1403">
                  <rect width="24" height="24" fill="white" />
                </clipPath>
              </defs>
            </svg>